<?xml version="1.0" encoding="UTF-8" standalone="no"?>
<svg
   xmlns:dc="http://purl.org/dc/elements/1.1/"
   xmlns:cc="http://creativecommons.org/ns#"
   xmlns:rdf="http://www.w3.org/1999/02/22-rdf-syntax-ns#"
   xmlns:svg="http://www.w3.org/2000/svg"
   xmlns="http://www.w3.org/2000/svg"
   viewBox="0 0 511.45734 343.944"
   height="343.944"
   width="511.45734"
   xml:space="preserve"
   id="svg2"
   version="1.1"><metadata
     id="metadata8"><rdf:RDF><cc:Work
         rdf:about=""><dc:format>image/svg+xml</dc:format><dc:type
           rdf:resource="http://purl.org/dc/dcmitype/StillImage" /></cc:Work></rdf:RDF></metadata><defs
     id="defs6"><clipPath
       id="clipPath18"
       clipPathUnits="userSpaceOnUse"><path
         id="path16"
         d="M 0,257.958 H 383.593 V 0 H 0 Z" /></clipPath></defs><g
     transform="matrix(1.3333333,0,0,-1.3333333,0,343.944)"
     id="g10"><g
       id="g12"><g
         clip-path="url(#clipPath18)"
         id="g14"><g
           transform="translate(110.2034,142.6346)"
           id="g20"><path
             id="path22"
             style="fill:#ef2c93;fill-opacity:1;fill-rule:nonzero;stroke:none"
             d="m 0,0 c 0.36,0.144 0.72,0.131 1.08,-0.036 0.36,-0.169 0.6,-0.432 0.72,-0.792 0.119,-0.36 0.108,-0.709 -0.036,-1.044 -4.8,-10.273 -9.576,-19.008 -14.328,-26.209 -4.752,-7.199 -9.324,-12.646 -13.716,-16.343 -4.392,-3.696 -8.46,-5.544 -12.204,-5.544 -1.105,0 -2.184,0.169 -3.24,0.504 -3.409,1.056 -6.156,3.733 -8.244,8.028 -2.088,4.296 -3.324,9.72 -3.708,16.271 -0.385,6.553 0.072,14.005 1.368,22.357 1.391,8.735 3.767,17.759 7.128,27.072 3.935,10.944 8.208,19.175 12.816,24.696 3.744,4.464 6.959,6.048 9.648,4.752 1.872,-0.913 3.132,-3.085 3.78,-6.516 0.648,-3.432 0.756,-7.74 0.324,-12.924 -0.432,-5.184 -1.08,-10.38 -1.944,-15.588 C -21.42,13.475 -22.525,7.848 -23.868,1.8 -23.965,1.463 -24.181,1.188 -24.516,0.972 -24.853,0.756 -25.2,0.695 -25.56,0.792 c -0.36,0.096 -0.648,0.299 -0.864,0.612 -0.216,0.311 -0.277,0.659 -0.18,1.044 1.44,6.431 2.592,12.323 3.456,17.676 0.864,5.352 1.428,9.828 1.692,13.428 0.263,3.6 0.324,6.696 0.18,9.288 -0.144,2.592 -0.444,4.547 -0.9,5.868 -0.457,1.319 -1.044,2.147 -1.764,2.484 -0.673,0.335 -1.56,0.144 -2.664,-0.576 -1.104,-0.72 -2.304,-1.848 -3.6,-3.384 -4.273,-5.137 -8.208,-12.612 -11.808,-22.428 -3.6,-9.817 -6.12,-19.164 -7.56,-28.044 -1.92,-11.808 -1.992,-21.816 -0.216,-30.024 0.816,-3.744 1.991,-6.779 3.528,-9.109 1.536,-2.327 3.336,-3.802 5.4,-4.427 4.56,-1.44 10.055,1.2 16.488,7.92 7.584,7.92 15.455,20.64 23.616,38.16 C -0.612,-0.385 -0.36,-0.144 0,0" /></g><g
           transform="translate(137.5623,141.8783)"
           id="g24"><path
             id="path26"
             style="fill:#ef2c93;fill-opacity:1;fill-rule:nonzero;stroke:none"
             d="m 0,0 c 0.36,0.12 0.708,0.096 1.044,-0.072 0.335,-0.169 0.564,-0.432 0.684,-0.792 0.12,-0.36 0.108,-0.709 -0.036,-1.044 -5.136,-10.609 -9.72,-15.912 -13.752,-15.912 -0.241,0 -0.504,0.025 -0.792,0.072 -3.216,0.624 -5.209,4.943 -5.976,12.96 -2.352,-3.168 -4.44,-5.76 -6.264,-7.776 -1.632,-1.728 -3.024,-2.329 -4.176,-1.8 -1.152,0.432 -1.703,1.68 -1.656,3.744 0,1.728 0.385,3.791 1.152,6.192 0.768,2.4 1.896,4.727 3.384,6.984 1.488,2.256 3.096,3.672 4.824,4.248 2.544,0.911 4.896,0.072 7.056,-2.52 0.24,-0.288 0.348,-0.624 0.324,-1.008 -0.024,-0.384 -0.18,-0.696 -0.468,-0.936 -0.288,-0.24 -0.624,-0.349 -1.008,-0.324 -0.384,0.024 -0.696,0.18 -0.936,0.468 -1.68,2.016 -3.384,2.4 -5.112,1.152 -1.969,-1.392 -3.612,-3.9 -4.932,-7.524 -1.32,-3.625 -1.836,-6.204 -1.548,-7.74 0.288,0.24 0.624,0.551 1.008,0.936 1.919,2.064 4.272,5.015 7.056,8.856 0.624,0.864 1.056,1.464 1.296,1.8 0.384,0.479 0.888,0.636 1.512,0.468 0.624,-0.168 0.96,-0.588 1.008,-1.26 0.096,-2.352 0.288,-4.44 0.576,-6.264 0.288,-1.825 0.576,-3.204 0.864,-4.14 0.288,-0.936 0.623,-1.717 1.008,-2.34 0.384,-0.624 0.684,-1.02 0.9,-1.188 0.216,-0.169 0.443,-0.252 0.684,-0.252 0.672,-0.144 1.524,0.18 2.556,0.972 1.032,0.792 2.351,2.328 3.96,4.608 1.608,2.28 3.251,5.172 4.932,8.676 C -0.637,-0.372 -0.36,-0.12 0,0" /></g><g
           transform="translate(164.0218,141.9867)"
           id="g28"><path
             id="path30"
             style="fill:#ef2c93;fill-opacity:1;fill-rule:nonzero;stroke:none"
             d="m 0,0 c 0.384,0.095 0.744,0.047 1.08,-0.144 0.336,-0.192 0.551,-0.468 0.648,-0.828 0.096,-0.36 0.047,-0.709 -0.144,-1.044 -1.632,-2.88 -3.048,-5.161 -4.248,-6.84 -1.2,-1.681 -2.424,-3 -3.672,-3.96 -1.248,-0.961 -2.473,-1.368 -3.672,-1.224 -2.401,0.288 -4.296,2.88 -5.688,7.776 -1.008,3.312 -1.872,4.968 -2.592,4.968 -0.144,0.047 -0.349,-0.013 -0.612,-0.18 -0.264,-0.169 -0.684,-0.601 -1.26,-1.296 -0.576,-0.697 -1.213,-1.645 -1.908,-2.844 -0.696,-1.2 -1.609,-2.977 -2.736,-5.328 -1.128,-2.352 -2.34,-5.137 -3.636,-8.352 -0.239,-0.576 -0.671,-0.864 -1.296,-0.864 -0.096,0 -0.191,0.025 -0.288,0.072 -0.815,0.192 -1.175,0.696 -1.08,1.512 0.48,3.935 2.281,11.255 5.4,21.96 0.335,1.103 0.576,1.944 0.72,2.52 0.144,0.384 0.384,0.659 0.72,0.828 0.335,0.167 0.684,0.204 1.044,0.108 0.36,-0.097 0.636,-0.313 0.828,-0.648 0.191,-0.337 0.216,-0.696 0.072,-1.08 -0.097,-0.337 -0.336,-1.177 -0.72,-2.52 -1.056,-3.697 -1.872,-6.577 -2.448,-8.64 1.536,2.88 2.88,4.871 4.032,5.976 1.152,1.103 2.256,1.631 3.312,1.584 1.248,-0.049 2.244,-0.697 2.988,-1.944 0.744,-1.249 1.451,-2.952 2.124,-5.112 1.055,-3.697 2.184,-5.616 3.384,-5.76 0.576,-0.097 1.284,0.227 2.124,0.972 0.839,0.744 1.739,1.823 2.7,3.24 0.96,1.415 1.692,2.531 2.196,3.348 0.504,0.815 1.091,1.847 1.764,3.096 C -0.672,-0.313 -0.385,-0.097 0,0" /></g><g
           transform="translate(187.9974,173.5223)"
           id="g32"><path
             id="path34"
             style="fill:#ef2c93;fill-opacity:1;fill-rule:nonzero;stroke:none"
             d="M 0,0 C 0.959,2.927 1.655,5.424 2.088,7.488 -0.265,2.544 -2.784,-5.16 -5.473,-15.624 c 1.344,3.264 2.905,7.656 4.681,13.176 0.335,1.055 0.6,1.872 0.792,2.448 m -19.872,-42.264 c 2.255,3.264 4.32,6.527 6.192,9.792 -0.72,0.24 -1.008,0.72 -0.864,1.44 0.191,1.776 -0.121,2.783 -0.936,3.024 h -0.432 c -1.008,0 -2.245,-0.66 -3.708,-1.98 -1.465,-1.321 -2.772,-3.204 -3.924,-5.652 -0.768,-1.584 -1.285,-3.204 -1.548,-4.86 -0.264,-1.656 -0.325,-3 -0.18,-4.032 0.144,-1.032 0.407,-1.645 0.792,-1.836 0.144,-0.096 0.371,-0.084 0.684,0.036 0.311,0.12 0.828,0.528 1.548,1.224 0.72,0.695 1.512,1.644 2.376,2.844 M 4.536,12.384 C 5.783,11.135 5.159,6.72 2.664,-0.864 2.472,-1.44 2.207,-2.232 1.872,-3.24 c -1.057,-3.216 -1.921,-5.784 -2.593,-7.704 -0.672,-1.92 -1.727,-4.608 -3.168,-8.064 -1.439,-3.456 -3,-6.768 -4.679,-9.936 -1.393,-6.624 -2.712,-13.68 -3.96,-21.168 -2.16,-12.816 -3.312,-21.503 -3.456,-26.064 0.383,0.144 0.767,0.144 1.152,0 0.335,-0.191 0.563,-0.468 0.684,-0.827 0.119,-0.361 0.108,-0.708 -0.036,-1.044 -0.864,-1.825 -1.728,-2.737 -2.592,-2.737 -0.193,0 -0.385,0.025 -0.576,0.073 -0.529,0.192 -0.9,0.54 -1.116,1.044 -0.216,0.503 -0.313,1.559 -0.288,3.167 0.024,1.609 0.227,3.972 0.612,7.092 0.576,4.992 1.535,11.569 2.88,19.728 0.767,4.464 1.559,8.808 2.376,13.032 -1.488,-2.401 -3.072,-4.8 -4.752,-7.2 -3.168,-4.608 -5.929,-6.264 -8.28,-4.968 -1.536,1.104 -2.28,3.06 -2.232,5.868 0.048,2.808 0.744,5.652 2.088,8.532 1.584,3.359 3.456,5.832 5.616,7.416 2.16,1.584 4.079,2.124 5.76,1.62 1.679,-0.504 2.639,-1.764 2.88,-3.78 0.239,0.384 0.455,0.767 0.648,1.152 2.544,12.048 5.099,21.732 7.668,29.052 2.567,7.319 4.668,11.244 6.3,11.772 0.671,0.24 1.248,0.096 1.728,-0.432" /></g><g
           transform="translate(186.3401,82.8021)"
           id="g36"><path
             id="path38"
             style="fill:#ef2c93;fill-opacity:1;fill-rule:nonzero;stroke:none"
             d="M 0,0 C 3.071,9.602 5.928,21.865 8.568,36.792 3.384,31.032 -1.08,24.553 -4.824,17.353 -6.887,13.417 -8.532,9.396 -9.756,5.292 c -1.224,-4.104 -1.98,-7.691 -2.268,-10.764 -0.288,-3.071 -0.311,-5.712 -0.072,-7.92 0.241,-2.207 0.697,-3.719 1.368,-4.536 0.336,-0.384 0.673,-0.527 1.008,-0.431 0.241,0.047 0.504,0.169 0.792,0.359 0.288,0.192 0.769,0.685 1.44,1.477 0.673,0.792 1.344,1.799 2.016,3.023 0.673,1.225 1.512,3.013 2.52,5.364 C -1.944,-5.783 -0.961,-3.071 0,0 m 32.328,59.437 c 0.384,-0.073 0.684,-0.265 0.901,-0.577 0.215,-0.312 0.275,-0.66 0.179,-1.044 C 33.312,57.432 33.12,57.144 32.832,56.952 24.336,51.432 17.376,45.937 11.952,40.464 9.119,23.521 6.023,9.769 2.664,-0.792 -1.32,-13.223 -5.184,-19.967 -8.928,-21.023 c -0.335,-0.096 -0.695,-0.145 -1.08,-0.145 -1.103,0 -2.063,0.481 -2.88,1.44 -1.343,1.728 -2.075,4.584 -2.196,8.569 -0.119,3.984 0.504,8.687 1.872,14.111 1.368,5.425 3.348,10.656 5.941,15.696 4.56,8.689 10.126,16.416 16.703,23.185 0.72,4.511 1.44,9.239 2.16,14.184 C 10.104,53.76 8.712,51.864 7.416,50.329 5.304,47.736 3.287,47.017 1.368,48.168 c -1.584,0.96 -2.425,2.964 -2.52,6.012 -0.097,3.048 0.599,6.372 2.089,9.972 0.143,0.336 0.395,0.577 0.755,0.721 0.36,0.144 0.707,0.144 1.044,0 0.335,-0.144 0.587,-0.385 0.756,-0.721 0.168,-0.336 0.18,-0.696 0.036,-1.08 -1.296,-3.504 -1.932,-6.361 -1.908,-8.568 0.024,-2.208 0.42,-3.527 1.189,-3.96 0.527,-0.336 1.342,0.168 2.447,1.512 2.399,2.881 4.871,6.527 7.416,10.944 0.384,0.672 0.936,0.875 1.656,0.612 0.72,-0.264 1.031,-0.756 0.936,-1.476 -0.817,-6 -1.656,-11.688 -2.52,-17.064 4.943,4.608 11.135,9.336 18.576,14.184 0.288,0.192 0.623,0.252 1.008,0.181" /></g><g
           transform="translate(225.7962,165.1703)"
           id="g40"><path
             id="path42"
             style="fill:#ef2c93;fill-opacity:1;fill-rule:nonzero;stroke:none"
             d="m 0,0 c 0.911,-0.672 1.367,-1.608 1.367,-2.808 0,-1.249 -0.515,-2.592 -1.548,-4.032 -1.032,-1.44 -2.244,-2.688 -3.635,-3.744 -0.242,-0.192 -0.529,-0.288 -0.865,-0.288 -0.431,0 -0.792,0.191 -1.08,0.576 -0.24,0.288 -0.336,0.624 -0.288,1.008 0.048,0.384 0.24,0.695 0.576,0.936 0.721,0.576 1.405,1.2 2.052,1.872 0.649,0.672 1.152,1.343 1.513,2.016 0.359,0.672 0.54,1.224 0.54,1.656 0,0.24 -0.097,0.432 -0.288,0.576 -0.337,0.24 -0.53,0.551 -0.576,0.936 -0.049,0.384 0.036,0.732 0.252,1.044 0.215,0.312 0.515,0.492 0.9,0.54 C -0.697,0.335 -0.337,0.24 0,0" /></g><g
           transform="translate(287.6429,114.5541)"
           id="g44"><path
             id="path46"
             style="fill:#ef2c93;fill-opacity:1;fill-rule:nonzero;stroke:none"
             d="m 0,0 c 0.384,0 0.708,-0.131 0.972,-0.396 0.263,-0.263 0.396,-0.586 0.396,-0.971 0,-0.24 -0.072,-0.469 -0.216,-0.685 C 1.008,-2.268 0.828,-2.436 0.612,-2.556 0.396,-2.675 0.168,-2.735 -0.072,-2.735 -1.8,-2.688 -3.756,-2.963 -5.939,-3.563 c -2.186,-0.6 -4.669,-1.572 -7.453,-2.916 -2.784,-1.344 -5.088,-2.508 -6.912,-3.493 -1.825,-0.983 -4.344,-2.363 -7.56,-4.139 -3.649,-2.064 -6.384,-3.588 -8.208,-4.573 -1.824,-0.983 -3.888,-1.931 -6.192,-2.843 -2.304,-0.911 -4.201,-1.369 -5.688,-1.369 -1.296,0 -2.376,0.313 -3.239,0.936 -2.209,1.681 -2.664,5.354 -1.369,11.017 3.6,15.792 8.592,34.847 14.976,57.168 1.536,5.375 2.939,10.151 4.212,14.327 1.271,4.177 2.351,7.62 3.24,10.332 0.888,2.712 1.716,4.992 2.485,6.841 0.766,1.847 1.355,3.227 1.763,4.139 0.407,0.912 0.828,1.584 1.26,2.016 0.433,0.433 0.744,0.66 0.937,0.684 0.19,0.024 0.455,0.012 0.791,-0.036 0.864,-0.096 1.392,-0.768 1.584,-2.016 0.191,-1.248 0.167,-3.168 -0.072,-5.76 -0.049,-0.384 -0.216,-0.696 -0.504,-0.936 -0.288,-0.24 -0.625,-0.348 -1.008,-0.324 -0.384,0.024 -0.708,0.18 -0.972,0.468 -0.264,0.289 -0.372,0.623 -0.323,1.008 0.094,0.865 0.167,1.657 0.215,2.376 -2.497,-5.712 -6.336,-17.712 -11.52,-36 -6.145,-21.648 -10.92,-39.96 -14.328,-54.936 -1.056,-4.464 -0.96,-7.175 0.288,-8.136 0.336,-0.239 0.767,-0.383 1.296,-0.431 0.528,-0.048 1.164,0.024 1.908,0.216 0.744,0.192 1.477,0.395 2.196,0.611 0.72,0.217 1.631,0.589 2.737,1.116 1.103,0.529 2.039,0.985 2.807,1.368 0.768,0.385 1.812,0.937 3.132,1.657 1.319,0.719 2.34,1.284 3.061,1.691 0.719,0.409 1.774,0.997 3.168,1.765 2.687,1.536 4.739,2.688 6.155,3.456 1.416,0.768 3.385,1.788 5.904,3.059 2.52,1.273 4.619,2.233 6.3,2.88 1.68,0.649 3.516,1.213 5.508,1.693 C -3.373,-0.167 -1.584,0.049 0,0" /></g><g
           transform="translate(308.7747,141.8783)"
           id="g48"><path
             id="path50"
             style="fill:#ef2c93;fill-opacity:1;fill-rule:nonzero;stroke:none"
             d="m 0,0 c 0.359,0.12 0.707,0.096 1.044,-0.072 0.335,-0.169 0.563,-0.432 0.684,-0.792 0.119,-0.36 0.108,-0.709 -0.037,-1.044 -5.136,-10.609 -9.719,-15.912 -13.752,-15.912 -0.24,0 -0.503,0.025 -0.792,0.072 -3.215,0.624 -5.209,4.943 -5.975,12.96 -2.353,-3.168 -4.441,-5.76 -6.265,-7.776 -1.632,-1.728 -3.023,-2.329 -4.176,-1.8 -1.151,0.432 -1.703,1.68 -1.655,3.744 0,1.728 0.385,3.791 1.152,6.192 0.767,2.4 1.895,4.727 3.383,6.984 1.488,2.256 3.097,3.672 4.825,4.248 2.543,0.911 4.896,0.072 7.056,-2.52 0.239,-0.288 0.347,-0.624 0.323,-1.008 C -14.209,2.892 -14.364,2.58 -14.652,2.34 -14.94,2.1 -15.276,1.991 -15.66,2.016 c -0.385,0.024 -0.696,0.18 -0.937,0.468 -1.68,2.016 -3.383,2.4 -5.111,1.152 -1.969,-1.392 -3.612,-3.9 -4.933,-7.524 -1.32,-3.625 -1.836,-6.204 -1.547,-7.74 0.288,0.24 0.623,0.551 1.007,0.936 1.92,2.064 4.273,5.015 7.057,8.856 0.623,0.864 1.055,1.464 1.296,1.8 0.384,0.479 0.888,0.636 1.512,0.468 0.623,-0.168 0.96,-0.588 1.007,-1.26 0.096,-2.352 0.288,-4.44 0.577,-6.264 0.288,-1.825 0.576,-3.204 0.864,-4.14 0.288,-0.936 0.623,-1.717 1.008,-2.34 0.383,-0.624 0.683,-1.02 0.9,-1.188 0.216,-0.169 0.443,-0.252 0.684,-0.252 0.672,-0.144 1.523,0.18 2.555,0.972 1.033,0.792 2.352,2.328 3.96,4.608 1.609,2.28 3.252,5.172 4.933,8.676 C -0.637,-0.372 -0.36,-0.12 0,0" /></g><g
           transform="translate(334.0814,141.5184)"
           id="g52"><path
             id="path54"
             style="fill:#ef2c93;fill-opacity:1;fill-rule:nonzero;stroke:none"
             d="M 0,0 C 0.384,0.072 0.731,0.011 1.044,-0.18 1.355,-0.372 1.56,-0.66 1.656,-1.044 1.752,-1.429 1.703,-1.764 1.513,-2.052 0.937,-2.964 0.312,-3.937 -0.359,-4.968 -1.032,-6 -2.028,-7.405 -3.348,-9.18 c -1.321,-1.777 -2.581,-3.324 -3.78,-4.644 -1.2,-1.321 -2.496,-2.484 -3.888,-3.492 -1.392,-1.008 -2.591,-1.512 -3.6,-1.512 -0.384,0 -0.72,0.072 -1.008,0.216 -2.304,0.864 -2.952,4.536 -1.943,11.016 -1.584,-2.16 -3.025,-3.792 -4.321,-4.896 -1.872,-1.584 -3.505,-1.776 -4.896,-0.576 -1.296,1.055 -1.883,2.927 -1.764,5.616 0.12,2.688 0.901,5.28 2.34,7.776 0.191,0.335 0.479,0.551 0.864,0.648 0.384,0.096 0.743,0.048 1.08,-0.144 0.335,-0.192 0.551,-0.468 0.648,-0.828 0.095,-0.36 0.048,-0.708 -0.144,-1.044 -0.816,-1.344 -1.38,-2.761 -1.692,-4.248 -0.313,-1.488 -0.408,-2.725 -0.287,-3.708 0.119,-0.984 0.346,-1.62 0.683,-1.908 0.24,-0.241 0.696,-0.072 1.369,0.504 1.247,1.055 2.807,2.952 4.679,5.688 0.335,0.432 0.587,0.756 0.756,0.972 0.168,0.216 0.371,0.479 0.612,0.792 0.24,0.312 0.432,0.515 0.577,0.612 0.143,0.096 0.311,0.204 0.503,0.324 0.192,0.12 0.384,0.168 0.577,0.144 0.191,-0.024 0.407,-0.085 0.647,-0.18 0.623,-0.24 0.96,-0.781 1.008,-1.62 0.048,-0.84 -0.071,-1.932 -0.36,-3.276 -0.529,-2.64 -0.732,-4.656 -0.612,-6.048 0.119,-1.393 0.228,-2.244 0.324,-2.556 0.096,-0.312 0.216,-0.468 0.36,-0.468 0.144,-0.096 0.396,-0.06 0.757,0.108 0.359,0.169 0.792,0.443 1.296,0.828 0.503,0.384 1.067,0.876 1.691,1.476 0.624,0.6 1.332,1.332 2.124,2.196 0.792,0.864 1.596,1.811 2.412,2.844 0.815,1.032 1.703,2.232 2.664,3.6 0.96,1.368 1.896,2.819 2.809,4.356 0.19,0.335 0.478,0.54 0.863,0.612" /></g></g></g></g></svg>